<svg xmlns="http://www.w3.org/2000/svg" viewBox="0 0 64 64" role="img" aria-label="Wujin AI network mark">
  <defs>
    <radialGradient id="aiGlow" cx="50%" cy="45%" r="55%">
      <stop offset="0" stop-color="#ffffff"/>
      <stop offset="0.55" stop-color="#ffe8e8"/>
      <stop offset="1" stop-color="#ffb8b8"/>
    </radialGradient>
  </defs>
  <rect x="9" y="9" width="46" height="46" rx="13" fill="none" stroke="#ffffff" stroke-width="2.8"/>
  <path d="M20 25 30 19l12 5 3 12-10 9-13-4-2-16Zm10-6 5 26M20 25l25 11M22 41l20-17" fill="none" stroke="#ffffff" stroke-width="2" stroke-linecap="round" opacity="0.85"/>
  <path d="M3 23h7M3 41h7M54 23h7M54 41h7M23 3v7M41 3v7M23 54v7M41 54v7" fill="none" stroke="#ffffff" stroke-width="2.4" stroke-linecap="round" opacity="0.9"/>
  <circle cx="30" cy="19" r="4" fill="url(#aiGlow)"/>
  <circle cx="20" cy="25" r="3.4" fill="#ffffff"/>
  <circle cx="42" cy="24" r="3.4" fill="#ffffff"/>
  <circle cx="45" cy="36" r="3.4" fill="#ffffff"/>
  <circle cx="35" cy="45" r="3.4" fill="#ffffff"/>
  <circle cx="22" cy="41" r="3.4" fill="#ffffff"/>
  <circle cx="32" cy="32" r="5.2" fill="url(#aiGlow)" stroke="#ff6464" stroke-width="1.4"/>
</svg>
